<svg width="40" height="40" viewBox="0 0 40 40" fill="none" xmlns="http://www.w3.org/2000/svg">
<path d="M0 6.25C0 5.55964 0.559644 5 1.25 5H5C5.57358 5 6.07356 5.39037 6.21268 5.94683L7.22597 10H36.25C36.6349 10 36.9984 10.1773 37.2353 10.4807C37.4721 10.7841 37.556 11.1797 37.4627 11.5532L33.7127 26.5532C33.5736 27.1096 33.0736 27.5 32.5 27.5H10C9.42642 27.5 8.92644 27.1096 8.78732 26.5532L4.02403 7.5H1.25C0.559644 7.5 0 6.94036 0 6.25ZM7.85097 12.5L10.976 25H31.524L34.649 12.5H7.85097ZM12.5 32.5C11.1193 32.5 10 33.6193 10 35C10 36.3807 11.1193 37.5 12.5 37.5C13.8807 37.5 15 36.3807 15 35C15 33.6193 13.8807 32.5 12.5 32.5ZM7.5 35C7.5 32.2386 9.73858 30 12.5 30C15.2614 30 17.5 32.2386 17.5 35C17.5 37.7614 15.2614 40 12.5 40C9.73858 40 7.5 37.7614 7.5 35ZM30 32.5C28.6193 32.5 27.5 33.6193 27.5 35C27.5 36.3807 28.6193 37.5 30 37.5C31.3807 37.5 32.5 36.3807 32.5 35C32.5 33.6193 31.3807 32.5 30 32.5ZM25 35C25 32.2386 27.2386 30 30 30C32.7614 30 35 32.2386 35 35C35 37.7614 32.7614 40 30 40C27.2386 40 25 37.7614 25 35Z" fill="white"/>
</svg>
