<svg width="23" height="23" viewBox="0 0 23 23" fill="none" xmlns="http://www.w3.org/2000/svg">
<path d="M11.5 21.5625C5.94264 21.5625 1.4375 17.0574 1.4375 11.5C1.4375 5.94264 5.94264 1.4375 11.5 1.4375C17.0574 1.4375 21.5625 5.94264 21.5625 11.5C21.5625 17.0574 17.0574 21.5625 11.5 21.5625ZM11.5 23C17.8513 23 23 17.8513 23 11.5C23 5.14873 17.8513 0 11.5 0C5.14873 0 0 5.14873 0 11.5C0 17.8513 5.14873 23 11.5 23Z" fill="black"/>
<path d="M5.75 11.5C5.75 11.103 6.0718 10.7812 6.46875 10.7812H16.5312C16.9282 10.7812 17.25 11.103 17.25 11.5C17.25 11.897 16.9282 12.2188 16.5312 12.2188H6.46875C6.0718 12.2188 5.75 11.897 5.75 11.5Z" fill="black"/>
</svg>
