<svg width="23" height="23" viewBox="0 0 23 23" fill="none" xmlns="http://www.w3.org/2000/svg">
<path d="M23 11.5C23 17.8513 17.8513 23 11.5 23C5.14873 23 0 17.8513 0 11.5C0 5.14873 5.14873 0 11.5 0C17.8513 0 23 5.14873 23 11.5ZM12.2188 6.46875C12.2188 6.07179 11.897 5.75 11.5 5.75C11.103 5.75 10.7812 6.07179 10.7812 6.46875V10.7812H6.46875C6.07179 10.7812 5.75 11.103 5.75 11.5C5.75 11.897 6.07179 12.2188 6.46875 12.2188H10.7812V16.5312C10.7812 16.9282 11.103 17.25 11.5 17.25C11.897 17.25 12.2188 16.9282 12.2188 16.5312V12.2188H16.5312C16.9282 12.2188 17.25 11.897 17.25 11.5C17.25 11.103 16.9282 10.7812 16.5312 10.7812H12.2188V6.46875Z" fill="black"/>
</svg>
