<svg width="30" height="30" viewBox="0 0 30 30" fill="none" xmlns="http://www.w3.org/2000/svg">
<path d="M5.625 17.8125C4.0717 17.8125 2.8125 16.5533 2.8125 15C2.8125 13.4467 4.0717 12.1875 5.625 12.1875C7.1783 12.1875 8.4375 13.4467 8.4375 15C8.4375 16.5533 7.1783 17.8125 5.625 17.8125ZM15 17.8125C13.4467 17.8125 12.1875 16.5533 12.1875 15C12.1875 13.4467 13.4467 12.1875 15 12.1875C16.5533 12.1875 17.8125 13.4467 17.8125 15C17.8125 16.5533 16.5533 17.8125 15 17.8125ZM24.375 17.8125C22.8217 17.8125 21.5625 16.5533 21.5625 15C21.5625 13.4467 22.8217 12.1875 24.375 12.1875C25.9283 12.1875 27.1875 13.4467 27.1875 15C27.1875 16.5533 25.9283 17.8125 24.375 17.8125Z" fill="white"/>
</svg>
